<?xml version="1.0" encoding="iso-8859-1"?>
<!-- Uploaded to: SVG Repo, www.svgrepo.com, Generator: SVG Repo Mixer Tools -->
<svg version="1.1" id="Layer_1" xmlns="http://www.w3.org/2000/svg" xmlns:xlink="http://www.w3.org/1999/xlink" 
	 viewBox="0 0 512 512" xml:space="preserve">
<circle style="fill:white;" cx="256" cy="256" r="256"/>
<path style="fill:#302621;" d="M416,348c0,8.8-7.2,16-16,16H112c-8.8,0-16-7.2-16-16V196c0-8.8,7.2-16,16-16h288c8.8,0,16,7.2,16,16
	V348z"/>
<path style="fill:#d5aa92;" d="M112,356c-4.412,0-8-3.584-8-8V196c0-4.412,3.588-8,8-8h288c4.416,0,8,3.588,8,8v152
	c0,4.416-3.584,8-8,8H112z"/>
<path style="fill:#fcf7f5;" d="M400,188h-4c4.416,0,8,3.588,8,8v152c0,4.416-3.584,8-8,8h4c4.416,0,8-3.584,8-8V196
	C408,191.588,404.416,188,400,188z"/>
<path style="fill:#fcf7f5;" d="M112,348V196c0-4.412,3.588-8,8-8h-8c-4.412,0-8,3.588-8,8v152c0,4.416,3.588,8,8,8h8
	C115.588,356,112,352.416,112,348z"/>
<path style="fill:#263740;" d="M180,328c-33.084,0-60-26.916-60-60s26.916-60,60-60s60,26.916,60,60S213.084,328,180,328z"/>
<path style="fill:#F5F5F5;" d="M232,268c0,28.728-23.272,52-52.004,52c-28.7,0-51.996-23.272-51.996-52
	c0-28.712,23.296-52,51.996-52C208.728,216,232,239.288,232,268z"/>
<path style="fill:#CC584C;" d="M180,272c-1.028,0-2.056-0.392-2.836-1.176c-1.56-1.568-1.556-4.096,0.012-5.656l20.08-20
	c1.564-1.56,4.096-1.556,5.656,0.012c1.56,1.564,1.556,4.096-0.012,5.656l-20.08,20C182.044,271.608,181.02,272,180,272z"/>
<path style="fill:#263740;" d="M328,328c33.084,0,60-26.916,60-60s-26.916-60-60-60s-60,26.916-60,60S294.916,328,328,328z"/>
<path style="fill:#F5F5F5;" d="M276,268c0,28.728,23.272,52,52.004,52c28.7,0,51.996-23.272,51.996-52c0-28.712-23.296-52-51.996-52
	C299.272,216,276,239.288,276,268z"/>
<path style="fill:#CC584C;" d="M328,272c1.028,0,2.056-0.392,2.836-1.176c1.564-1.568,1.556-4.096-0.012-5.656l-20.084-20
	c-1.564-1.56-4.092-1.556-5.656,0.012c-1.56,1.564-1.556,4.096,0.016,5.656l20.08,20C325.952,271.608,326.98,272,328,272z"/>
<g>
	<path style="fill:#242424;" d="M168,364h-32h-8v8c0,4.4,3.6,8,8,8h32c4.4,0,8-3.6,8-8v-8H168z"/>
	<path style="fill:#242424;" d="M368,364h-32h-8v8c0,4.4,3.6,8,8,8h32c4.4,0,8-3.6,8-8v-8H368z"/>
</g>
<rect x="164" y="172" style="fill:#263740;" width="24" height="8"/>
<rect x="164" y="172" style="fill:#1E2C33;" width="24" height="4"/>
<path style="fill:#263740;" d="M196,168c0,2.2-1.8,4-4,4h-32c-2.2,0-4-1.8-4-4l0,0c0-2.2,1.8-4,4-4h32C194.2,164,196,165.8,196,168
	L196,168z"/>
<path style="fill:#CC584C;" d="M168,164c0-4.416,3.584-8,8-8s8,3.584,8,8H168z"/>
<rect x="324" y="172" style="fill:#263740;" width="24" height="8"/>
<rect x="324" y="172" style="fill:#1E2C33;" width="24" height="4"/>
<path style="fill:#263740;" d="M356,168c0,2.2-1.8,4-4,4h-32c-2.2,0-4-1.8-4-4l0,0c0-2.2,1.8-4,4-4h32C354.2,164,356,165.8,356,168
	L356,168z"/>
<path style="fill:#CC584C;" d="M328,164c0-4.416,3.584-8,8-8s8,3.584,8,8H328z"/>
<path style="fill:#263740;" d="M32.036,380C75.704,458.704,159.612,512,256,512c96.392,0,180.296-53.296,223.964-132H32.036z"/>
<path style="fill:#354D59;" d="M44.34,400h423.32c4.404-6.456,8.5-13.136,12.304-20H32.036C35.84,386.864,39.936,393.544,44.34,400z
	"/>
</svg>